<?xml version="1.0" standalone="no"?>
<!DOCTYPE svg PUBLIC "-//W3C//DTD SVG 20010904//EN"
 "http://www.w3.org/TR/2001/REC-SVG-20010904/DTD/svg10.dtd">
<svg version="1.0" xmlns="http://www.w3.org/2000/svg"
 width="441.000000pt" height="441.000000pt" viewBox="0 0 441.000000 441.000000"
 preserveAspectRatio="xMidYMid meet">
<metadata>
Created by potrace 1.14, written by Peter Selinger 2001-2017
</metadata>
<g transform="translate(0.000000,441.000000) scale(0.100000,-0.100000)"
fill="#000000" stroke="none">
<path d="M2379 4339 c-60 -9 -115 -38 -162 -86 -65 -64 -82 -106 -81 -198 0
-96 13 -125 94 -210 l58 -60 -30 -95 c-54 -175 -59 -212 -65 -460 -3 -129 -6
-236 -7 -236 0 -1 -35 -5 -76 -8 -41 -4 -88 -9 -104 -13 l-29 -5 9 63 c5 35 9
156 9 269 -1 212 -7 261 -56 419 l-19 63 29 37 c44 56 61 97 67 159 17 172
-114 309 -303 318 -140 6 -255 -56 -316 -171 -30 -56 -30 -183 0 -240 30 -58
90 -114 151 -142 42 -20 52 -29 46 -42 -4 -9 -9 -108 -10 -221 -4 -224 6 -306
51 -460 15 -50 25 -93 23 -95 -2 -3 -49 21 -104 53 -291 169 -673 295 -925
306 -130 5 -208 -8 -236 -40 -29 -32 -29 -53 2 -98 34 -50 60 -76 125 -124
216 -159 664 -327 984 -367 57 -8 58 -6 -3 -144 -61 -136 -72 -195 -72 -384 0
-89 3 -175 6 -192 31 -160 116 -329 223 -446 l52 -57 -38 -24 c-20 -14 -65
-54 -99 -88 -165 -168 -197 -407 -82 -606 85 -147 308 -290 499 -320 64 -9
306 -6 366 5 79 15 236 83 306 132 l26 19 173 -228 c95 -125 184 -241 199
-258 l26 -30 502 1 c276 1 505 4 508 7 2 3 -48 75 -113 161 -580 763 -1112
1467 -1131 1494 -25 36 -25 30 19 188 19 68 22 103 22 235 -2 202 -12 253
-100 466 -2 7 56 42 139 84 433 219 831 530 928 723 35 70 37 87 13 115 -101
120 -821 -228 -1192 -575 -20 -18 -38 -33 -42 -33 -3 0 0 35 7 78 24 131 28
200 27 397 -1 148 -6 211 -21 285 -11 52 -23 102 -27 111 -4 12 4 24 27 40 52
37 88 80 114 134 30 63 28 168 -4 230 -29 57 -89 114 -147 141 -55 25 -157 35
-236 23z"/>
</g>
</svg>
